<svg id="Calque_1" data-name="Calque 1" xmlns="http://www.w3.org/2000/svg" xmlns:xlink="http://www.w3.org/1999/xlink" viewBox="0 0 495 195.44"><defs><style>.cls-1{fill:url(#Dégradé_sans_nom_281);}.cls-2{fill:url(#Dégradé_sans_nom_281-2);}.cls-3{fill:url(#Dégradé_sans_nom_281-3);}.cls-4{fill:url(#Dégradé_sans_nom_281-4);}.cls-5{fill:#194885;}.cls-6{fill:url(#Dégradé_sans_nom_126);}.cls-7{fill:url(#Dégradé_sans_nom_117);}.cls-8{fill:url(#Dégradé_sans_nom_301);}.cls-9{fill:url(#Dégradé_sans_nom_132);}</style><radialGradient id="Dégradé_sans_nom_281" cx="413.5" cy="329.5" r="81.5" gradientTransform="translate(0 145.32) scale(1 0.12)" gradientUnits="userSpaceOnUse"><stop offset="0" stop-opacity="0.4"/><stop offset="0.07" stop-opacity="0.34"/><stop offset="1" stop-opacity="0"/></radialGradient><radialGradient id="Dégradé_sans_nom_281-2" cx="81.5" cy="321.3" r="81.5" xlink:href="#Dégradé_sans_nom_281"/><radialGradient id="Dégradé_sans_nom_281-3" cx="161.5" cy="329.5" r="81.5" xlink:href="#Dégradé_sans_nom_281"/><radialGradient id="Dégradé_sans_nom_281-4" cx="246.5" cy="329.5" r="81.5" xlink:href="#Dégradé_sans_nom_281"/><linearGradient id="Dégradé_sans_nom_126" x1="157.18" y1="185.66" x2="250.55" y2="-0.12" gradientUnits="userSpaceOnUse"><stop offset="0" stop-color="#611fa6"/><stop offset="0.13" stop-color="#6621af"/><stop offset="0.35" stop-color="#7526c9"/><stop offset="0.5" stop-color="#812add"/><stop offset="0.89" stop-color="#9756dd"/><stop offset="1" stop-color="#9e63dd"/></linearGradient><linearGradient id="Dégradé_sans_nom_117" x1="71.55" y1="184.55" x2="166.34" y2="0.66" gradientUnits="userSpaceOnUse"><stop offset="0" stop-color="#1f59a6"/><stop offset="0.13" stop-color="#215eaf"/><stop offset="0.33" stop-color="#256cc9"/><stop offset="0.5" stop-color="#2a7ae2"/><stop offset="1" stop-color="#669ce2"/></linearGradient><linearGradient id="Dégradé_sans_nom_301" x1="331.56" y1="2.78" x2="419.06" y2="187.78" gradientUnits="userSpaceOnUse"><stop offset="0" stop-color="#861fa6"/><stop offset="0.08" stop-color="#8e21af"/><stop offset="0.22" stop-color="#a225c9"/><stop offset="0.34" stop-color="#b72ae2"/></linearGradient><linearGradient id="Dégradé_sans_nom_132" x1="244.7" y1="183.21" x2="334.27" y2="-0.2" gradientUnits="userSpaceOnUse"><stop offset="0" stop-color="#861fa6"/><stop offset="0.13" stop-color="#8e21af"/><stop offset="0.33" stop-color="#a225c9"/><stop offset="0.5" stop-color="#b72ae2"/><stop offset="0.8" stop-color="#bf4de2"/><stop offset="1" stop-color="#c566e2"/></linearGradient></defs><title>Logo</title><ellipse class="cls-1" cx="413.5" cy="185.5" rx="81.5" ry="9.94"/><ellipse class="cls-2" cx="81.5" cy="184.5" rx="81.5" ry="9.94"/><ellipse class="cls-3" cx="161.5" cy="185.5" rx="81.5" ry="9.94"/><ellipse class="cls-4" cx="246.5" cy="185.5" rx="81.5" ry="9.94"/><rect class="cls-5" x="131" width="61" height="185"/><polygon class="cls-6" points="277 0 216 0 131 185 192 185 277 0"/><polygon class="cls-7" points="192 0 131 0 46 185 107 185 192 0"/><polygon class="cls-8" points="301 0 362 0 447 185 386 185 301 0"/><polygon class="cls-9" points="362 0 301 0 216 185 277 185 362 0"/></svg>