<svg version="1.1" xmlns="http://www.w3.org/2000/svg" x="0px" y="0px" viewBox="0 0 24 24" xml:space="preserve">
<path  d="M12,3.2c-5,0-9,4-9,9c0,4,2.6,7.4,6.2,8.6c0.5,0.1,0.6-0.2,0.6-0.4c0-0.2,0-0.8,0-1.5c-2.5,0.5-3-1.2-3-1.2
	c-0.4-1-1-1.3-1-1.3c-0.8-0.6,0.1-0.5,0.1-0.5c0.9,0.1,1.4,0.9,1.4,0.9c0.8,1.4,2.1,1,2.6,0.7c0.1-0.6,0.3-1,0.6-1.2
	c-2-0.2-4.1-1-4.1-4.5c0-1,0.4-1.8,0.9-2.4C7.1,9.1,6.8,8.2,7.3,6.9c0,0,0.8-0.2,2.5,0.9c0.7-0.2,1.5-0.3,2.3-0.3
	c0.8,0,1.5,0.1,2.3,0.3c1.7-1.2,2.5-0.9,2.5-0.9c0.5,1.2,0.2,2.2,0.1,2.4c0.6,0.6,0.9,1.4,0.9,2.4c0,3.5-2.1,4.2-4.1,4.5
	c0.3,0.3,0.6,0.8,0.6,1.7c0,1.2,0,2.2,0,2.5c0,0.2,0.2,0.5,0.6,0.4c3.6-1.2,6.2-4.6,6.2-8.6C21,7.2,17,3.2,12,3.2z"/>
</svg>
