<?xml version="1.0" standalone="no"?>
<!DOCTYPE svg PUBLIC "-//W3C//DTD SVG 20010904//EN"
 "http://www.w3.org/TR/2001/REC-SVG-20010904/DTD/svg10.dtd">
<svg version="1.0" xmlns="http://www.w3.org/2000/svg"
 width="260.000000pt" height="260.000000pt" viewBox="0 0 260.000000 260.000000"
 preserveAspectRatio="xMidYMid meet">
<metadata>
Created by potrace 1.11, written by Peter Selinger 2001-2013
</metadata>
<g transform="translate(0.000000,260.000000) scale(0.100000,-0.100000)"
fill="#000000" stroke="none">
<path d="M960 2340 c-4 -3 -61 -120 -125 -260 -198 -430 -226 -493 -255 -555
-53 -115 -196 -426 -230 -500 -53 -118 -314 -683 -331 -719 -10 -22 -17 -42
-14 -44 4 -4 595 -6 668 -3 11 1 26 20 41 53 58 132 230 504 235 510 4 4 6
-121 6 -277 0 -157 2 -286 5 -286 17 -4 673 -3 680 1 4 3 47 91 95 195 134
291 140 304 180 390 20 44 56 123 80 175 23 52 111 244 195 425 84 182 164
355 177 385 99 216 198 431 214 464 10 22 17 41 15 44 -9 9 -677 5 -684 -4 -5
-5 -27 -49 -49 -99 -23 -49 -59 -128 -81 -175 -21 -47 -58 -128 -82 -180 -23
-52 -46 -98 -49 -102 -3 -4 -6 122 -6 280 l0 287 -338 0 c-186 0 -342 -2 -347
-5z"/>
</g>
</svg>
